<?xml version="1.0" encoding="UTF-8" standalone="no"?>
<svg width="100px" height="100px" viewBox="0 0 100 100" version="1.1" xmlns="http://www.w3.org/2000/svg" xmlns:xlink="http://www.w3.org/1999/xlink">
    <defs></defs>
    <g id="Page-1" stroke="none" stroke-width="1" fill="none" fill-rule="evenodd">
        <path d="M50,100 C77.6142375,100 100,77.6142375 100,50 C100,22.3857625 77.6142375,0 50,0 C22.3857625,0 0,22.3857625 0,50 C0,77.6142375 22.3857625,100 50,100 Z M58.456,63 L58.456,58.478 L49.31,58.478 L49.31,53.548 L57.742,53.548 L57.742,49.026 L49.31,49.026 L49.31,44.878 L58.456,44.878 L58.456,40.356 L44.21,40.356 L44.21,63 L58.456,63 Z M77.292,56.642 C77.292,52.188 76.986,50.998 70.866,49.536 C67.296,48.686 67.194,48.652 67.194,46.476 C67.194,44.81 67.704,44.402 69.982,44.402 C72.022,44.402 73.688,44.606 76.272,45.048 L76.782,40.764 C74.266,40.22 71.886,40.016 69.914,40.016 C63.692,40.016 62.094,41.818 62.094,46.34 C62.094,51.236 62.91,52.324 68.384,53.514 C72.09,54.33 72.192,54.568 72.192,56.608 C72.192,58.512 71.682,59.022 69.064,59.022 C66.718,59.022 64.61,58.58 62.536,57.934 L61.686,61.878 C63.624,62.762 66.378,63.34 68.996,63.34 C75.83,63.34 77.292,61.13 77.292,56.642 Z M87.526,63.34 C93.408,63.34 94.734,60.178 94.734,56.778 L94.734,55.316 C94.734,51.236 92.796,49.604 88.988,49.604 C87.594,49.604 86.472,49.74 85.248,50.114 L85.248,48.448 C85.248,45.626 86.914,44.81 91.47,44.81 C91.98,44.81 93.068,44.878 93.782,44.98 L94.122,40.968 C93.034,40.798 91.776,40.696 90.79,40.696 C84.534,40.696 80.352,42.328 80.352,48.482 L80.352,56.778 C80.352,60.348 81.644,63.34 87.526,63.34 Z M87.526,59.124 C85.758,59.124 85.248,58.58 85.248,57.016 L85.248,54.432 C86.064,54.058 87.05,53.82 88.172,53.82 C89.056,53.82 89.838,54.126 89.838,55.52 L89.838,57.016 C89.838,58.478 89.294,59.124 87.526,59.124 Z" id="Oval-1" fill="#F26522"></path>
    </g>
</svg>